<svg width="17" height="12" viewBox="0 0 17 12" fill="none" xmlns="http://www.w3.org/2000/svg">
<path d="M2.00543 7.33362C2.55772 7.33362 3.00543 7.78133 3.00543 8.33362V10.3336C3.00526 10.8858 2.55761 11.3336 2.00543 11.3336H1.00543C0.453256 11.3336 0.0056081 10.8858 0.00543213 10.3336V8.33362C0.00543213 7.78133 0.453147 7.33362 1.00543 7.33362H2.00543ZM6.67242 5.33362C7.22448 5.33388 7.67242 5.7815 7.67242 6.33362V10.3336C7.67223 10.8856 7.22436 11.3334 6.67242 11.3336H5.67242C5.12026 11.3336 4.67262 10.8857 4.67242 10.3336V6.33362C4.67242 5.78133 5.12014 5.33362 5.67242 5.33362H6.67242ZM11.3394 2.99963C11.8914 2.9999 12.3392 3.44768 12.3394 3.99963V10.3336C12.3393 10.8856 11.8914 11.3334 11.3394 11.3336H10.3394C9.78723 11.3336 9.33957 10.8858 9.33942 10.3336V3.99963C9.33961 3.44752 9.78725 2.99963 10.3394 2.99963H11.3394ZM16.0054 0.666626C16.5577 0.666626 17.0054 1.11434 17.0054 1.66663V10.3336C17.0053 10.8858 16.5576 11.3336 16.0054 11.3336H15.0054C14.4533 11.3336 14.0056 10.8858 14.0054 10.3336V1.66663C14.0054 1.11434 14.4531 0.666626 15.0054 0.666626H16.0054Z" fill="#37403F"/>
</svg>
