<svg width="17" height="12" viewBox="0 0 17 12" fill="none" xmlns="http://www.w3.org/2000/svg">
<path d="M2.00537 7.33362C2.55766 7.33362 3.00537 7.78133 3.00537 8.33362V10.3336C3.0052 10.8858 2.55755 11.3336 2.00537 11.3336H1.00537C0.453195 11.3336 0.00554706 10.8858 0.00537109 10.3336V8.33362C0.00537109 7.78133 0.453086 7.33362 1.00537 7.33362H2.00537ZM6.67236 5.33362C7.22442 5.33388 7.67236 5.7815 7.67236 6.33362V10.3336C7.67217 10.8856 7.2243 11.3334 6.67236 11.3336H5.67236C5.1202 11.3336 4.67256 10.8857 4.67236 10.3336V6.33362C4.67236 5.78133 5.12008 5.33362 5.67236 5.33362H6.67236ZM11.3394 2.99963C11.8913 2.9999 12.3392 3.44768 12.3394 3.99963V10.3336C12.3392 10.8856 11.8913 11.3334 11.3394 11.3336H10.3394C9.78717 11.3336 9.33951 10.8858 9.33936 10.3336V3.99963C9.33955 3.44752 9.78719 2.99963 10.3394 2.99963H11.3394ZM16.0054 0.666626C16.5577 0.666626 17.0054 1.11434 17.0054 1.66663V10.3336C17.0052 10.8858 16.5575 11.3336 16.0054 11.3336H15.0054C14.4532 11.3336 14.0055 10.8858 14.0054 10.3336V1.66663C14.0054 1.11434 14.4531 0.666626 15.0054 0.666626H16.0054Z" fill="#37403F"/>
</svg>
