<svg width="514" height="256" viewBox="0 0 514 256" fill="none" xmlns="http://www.w3.org/2000/svg">
<g clip-path="url(#clip0_360_3458)">
<rect x="26" y="1.5" width="158.614" height="212.522" rx="3" fill="white" stroke="#EEEEEE" stroke-width="2"/>
<rect x="192.588" y="1.5" width="125.011" height="212.522" rx="3" fill="white" stroke="#EEEEEE" stroke-width="2"/>
<rect x="328.947" y="1.5" width="125.011" height="212.522" rx="3" fill="white" stroke="#EEEEEE" stroke-width="2"/>
<mask id="mask0_360_3458" style="mask-type:alpha" maskUnits="userSpaceOnUse" x="25" y="0" width="430" height="216">
<mask id="path-4-inside-1_360_3458" fill="white">
<path d="M181.613 0.5C183.822 0.5 185.613 2.29086 185.613 4.5V211.022C185.613 213.232 183.822 215.022 181.613 215.022H29C26.7909 215.022 25 213.232 25 211.022V4.5C25 2.29086 26.7909 0.5 29 0.5H181.613ZM314.6 0.5C316.809 0.5 318.6 2.29086 318.6 4.5V211.022C318.6 213.232 316.809 215.022 314.6 215.022H195.588C193.379 215.022 191.588 213.231 191.588 211.022V4.5C191.588 2.29094 193.379 0.500132 195.588 0.5H314.6ZM450.959 0.5C453.168 0.5 454.959 2.29086 454.959 4.5V211.022C454.959 213.232 453.168 215.022 450.959 215.022H331.947C329.738 215.022 327.947 213.231 327.947 211.022V4.5C327.947 2.29094 329.738 0.500132 331.947 0.5H450.959Z"/>
</mask>
<path d="M181.613 0.5C183.822 0.5 185.613 2.29086 185.613 4.5V211.022C185.613 213.232 183.822 215.022 181.613 215.022H29C26.7909 215.022 25 213.232 25 211.022V4.5C25 2.29086 26.7909 0.5 29 0.5H181.613ZM314.6 0.5C316.809 0.5 318.6 2.29086 318.6 4.5V211.022C318.6 213.232 316.809 215.022 314.6 215.022H195.588C193.379 215.022 191.588 213.231 191.588 211.022V4.5C191.588 2.29094 193.379 0.500132 195.588 0.5H314.6ZM450.959 0.5C453.168 0.5 454.959 2.29086 454.959 4.5V211.022C454.959 213.232 453.168 215.022 450.959 215.022H331.947C329.738 215.022 327.947 213.231 327.947 211.022V4.5C327.947 2.29094 329.738 0.500132 331.947 0.5H450.959Z" fill="white"/>
<path d="M185.613 211.022L187.613 211.022V211.022H185.613ZM29 215.022L29 217.022H29V215.022ZM25 211.022H23V211.022L25 211.022ZM318.6 211.022L320.6 211.022V211.022H318.6ZM195.588 215.022L195.588 217.022H195.588V215.022ZM191.588 211.022H189.588V211.022L191.588 211.022ZM195.588 0.5V-1.5H195.588L195.588 0.5ZM454.959 211.022L456.959 211.022V211.022H454.959ZM331.947 215.022L331.947 217.022H331.947V215.022ZM327.947 211.022H325.947V211.022L327.947 211.022ZM331.947 0.5V-1.5H331.947L331.947 0.5ZM181.613 0.5V2.5C182.718 2.5 183.613 3.39543 183.613 4.5H185.613H187.613C187.613 1.18629 184.927 -1.5 181.613 -1.5V0.5ZM185.613 4.5H183.613V211.022H185.613H187.613V4.5H185.613ZM185.613 211.022L183.613 211.022C183.613 212.127 182.718 213.022 181.613 213.022V215.022V217.022C184.927 217.022 187.613 214.336 187.613 211.022L185.613 211.022ZM181.613 215.022V213.022H29V215.022V217.022H181.613V215.022ZM29 215.022L29 213.022C27.8955 213.022 27 212.127 27 211.022L25 211.022L23 211.022C23.0001 214.336 25.6863 217.022 29 217.022L29 215.022ZM25 211.022H27V4.5H25H23V211.022H25ZM25 4.5H27C27 3.39543 27.8954 2.5 29 2.5V0.5V-1.5C25.6863 -1.5 23 1.18629 23 4.5H25ZM29 0.5V2.5H181.613V0.5V-1.5H29V0.5ZM314.6 0.5V2.5C315.704 2.5 316.6 3.39543 316.6 4.5H318.6H320.6C320.6 1.18629 317.913 -1.5 314.6 -1.5V0.5ZM318.6 4.5H316.6V211.022H318.6H320.6V4.5H318.6ZM318.6 211.022L316.6 211.022C316.6 212.127 315.704 213.022 314.6 213.022V215.022V217.022C317.913 217.022 320.6 214.336 320.6 211.022L318.6 211.022ZM314.6 215.022V213.022H195.588V215.022V217.022H314.6V215.022ZM195.588 215.022L195.588 213.022C194.483 213.022 193.588 212.127 193.588 211.022L191.588 211.022L189.588 211.022C189.588 214.336 192.274 217.022 195.588 217.022L195.588 215.022ZM191.588 211.022H193.588V4.5H191.588H189.588V211.022H191.588ZM191.588 4.5H193.588C193.588 3.39563 194.483 2.50007 195.588 2.5L195.588 0.5L195.588 -1.5C192.274 -1.4998 189.588 1.18625 189.588 4.5H191.588ZM195.588 0.5V2.5H314.6V0.5V-1.5H195.588V0.5ZM450.959 0.5V2.5C452.064 2.5 452.959 3.39543 452.959 4.5H454.959H456.959C456.959 1.18629 454.273 -1.5 450.959 -1.5V0.5ZM454.959 4.5H452.959V211.022H454.959H456.959V4.5H454.959ZM454.959 211.022L452.959 211.022C452.959 212.127 452.064 213.022 450.959 213.022V215.022V217.022C454.273 217.022 456.959 214.336 456.959 211.022L454.959 211.022ZM450.959 215.022V213.022H331.947V215.022V217.022H450.959V215.022ZM331.947 215.022L331.947 213.022C330.843 213.022 329.947 212.127 329.947 211.022L327.947 211.022L325.947 211.022C325.947 214.336 328.634 217.022 331.947 217.022L331.947 215.022ZM327.947 211.022H329.947V4.5H327.947H325.947V211.022H327.947ZM327.947 4.5H329.947C329.947 3.39563 330.843 2.50007 331.947 2.5L331.947 0.5L331.947 -1.5C328.634 -1.4998 325.947 1.18625 325.947 4.5H327.947ZM331.947 0.5V2.5H450.959V0.5V-1.5H331.947V0.5Z" fill="#EEEEEE" mask="url(#path-4-inside-1_360_3458)"/>
</mask>
<g mask="url(#mask0_360_3458)">
<path d="M18 142.187L20.1185 140.98C23.5804 138.944 27.094 136.995 30.5043 134.89C36.2225 131.354 42.0958 128.076 47.6074 124.195C49.2608 123.022 50.9143 122.798 52.8089 123.919C56.9942 126.386 61.5584 128.111 66.0021 130.06C67.3972 130.681 68.6718 130.681 70.0497 130.146C72.8055 129.094 75.1823 127.49 77.1803 125.333C78.4376 123.953 79.626 122.504 80.8316 121.072C81.3828 120.417 82.0028 120.175 82.8123 120.52C83.329 120.727 83.863 120.917 84.3797 121.141C88.6512 123.022 92.9226 124.937 97.1941 126.817C97.9691 127.162 98.7959 127.369 99.5193 127.783C100.604 128.387 101.517 128.352 102.654 127.783C105.341 126.472 108.148 125.437 110.852 124.178C111.972 123.66 112.954 123.66 114.056 124.143C117.483 125.644 120.928 127.076 124.373 128.508C126.181 129.267 127.904 130.181 129.574 131.216C131.555 132.441 133.605 133.579 135.654 134.701C137.153 135.511 138.772 135.994 140.46 136.115C142.303 136.253 142.768 135.925 143.405 134.235C143.594 133.717 143.732 133.165 143.922 132.631C145.713 127.421 147.28 122.108 149.692 117.122C150.673 115.104 151.638 113.085 152.757 111.136C153.911 109.1 155.083 107.082 156.512 105.219C157.373 104.098 158.389 103.787 159.681 103.908C160.818 104.011 161.851 104.425 162.85 104.96C164.934 106.082 167.156 106.72 169.516 106.944C171.686 107.151 171.686 107.203 172.289 105.236C172.375 104.96 172.427 104.684 172.478 104.408C173.374 100.199 174.356 96.0243 175.165 91.7978C175.785 88.5892 176.302 85.346 177.439 82.2581C178.403 79.6188 179.351 76.9621 181.796 75.2198C183.708 73.857 185.741 72.7357 187.859 71.7351C188.772 71.3039 189.357 71.4764 190.081 72.1664C196.85 78.7562 203.309 85.622 209.681 92.5914C210.818 93.8507 211.8 95.179 212.575 96.6971C214.435 100.389 216.674 103.787 219.654 106.737C222.961 110.032 226.044 113.551 229.316 116.898C231.728 119.365 234.242 121.745 236.774 124.109C237.721 124.988 238.824 125.73 239.909 126.455C240.994 127.197 242.113 127.248 243.319 126.541C244.921 125.592 246.609 124.781 248.297 123.953C249.382 123.419 250.518 122.987 251.655 122.539C252.12 122.349 252.568 122.418 252.964 122.729C253.188 122.901 253.395 123.091 253.584 123.298C256.323 126.11 259.595 128.352 262.11 131.406C262.747 132.182 263.04 132.165 264.073 131.733C264.418 131.595 264.762 131.44 265.09 131.268C270.446 128.628 275.803 125.989 281.159 123.315C283.881 121.952 286.154 120.124 287.67 117.364C289.203 114.569 291.218 112.102 293.199 109.618C293.715 108.962 294.37 108.393 295.024 107.893C296.764 106.565 297.487 106.565 299.296 107.772C303.223 110.394 306.478 113.741 309.389 117.433C310.026 118.243 310.663 119.054 311.197 119.934C312.713 122.504 314.177 125.126 315.658 127.714C316.623 129.422 317.553 131.147 318.517 132.855C319.086 133.838 319.826 134.683 320.756 135.322C322.565 136.564 323.822 136.529 325.596 135.218C326.423 134.597 327.215 133.942 327.99 133.269C329.885 131.613 331.762 129.922 333.657 128.249C336.723 125.523 339.926 122.953 342.596 119.796C343.853 118.312 345.541 118.312 347.039 119.589C347.47 119.951 347.866 120.348 348.228 120.779C349.95 122.746 351.724 124.678 353.343 126.731C356.306 130.474 359.148 134.304 362.058 138.065C363.643 140.1 365.71 140.842 368.259 140.359C370.412 139.945 372.306 138.927 374.149 137.823C376.492 136.426 378.92 135.253 381.401 134.166C386.292 132.044 391.166 129.905 395.834 127.352C397.642 126.368 399.347 125.264 400.846 123.815C403.343 121.4 405.531 118.726 407.632 116.001C409.062 114.155 410.353 112.206 411.835 110.394C412.885 109.1 413.712 109.066 414.918 110.204C416.485 111.671 418.018 113.189 419.43 114.793C421.531 117.174 423.805 119.399 425.613 122.039C426.836 123.815 428.076 125.558 429.385 127.266C430.918 129.267 432.451 131.268 434.225 133.079C435.362 134.235 436.619 135.184 438.118 135.787C441.666 137.219 445.214 138.668 448.814 139.962L452 141.101V260.545H18V142.187Z" fill="#EEEEEE"/>
</g>
<path d="M18.0001 254.5L499 254.5" stroke="#E2E4E4" stroke-width="2" stroke-linecap="round"/>
<path d="M484.315 254.476H512.707" stroke="#E2E4E4" stroke-width="2" stroke-linecap="round" stroke-dasharray="4 4"/>
<path d="M2.29297 254.476L27.85 254.476" stroke="#E2E4E4" stroke-width="2" stroke-linecap="round" stroke-dasharray="4 4"/>
<path d="M388.945 208.01H184.985V240.3H388.945V208.01Z" fill="#4F5D5B" stroke="#4F5D5B" stroke-width="2" stroke-miterlimit="10"/>
<path d="M408.315 218.79C408.315 216.13 407.335 213.56 405.555 211.58L402.505 208.87C399.815 206.49 397.355 203.87 395.135 201.04C390.695 195.37 385.255 190.55 379.105 186.8C358.875 174.48 342.145 166.53 318.245 166.53L314.135 166.42C308.595 166.27 303.045 166.31 297.505 166.53C268.615 166.53 249.235 176.73 232.915 192.7C223.055 192.94 215.115 194.1 209.795 195.08C194.065 197.99 177.905 200.97 172.335 212.52C170.635 216.04 170.375 219.4 170.365 221.4V221.76H170.025C167.375 221.76 165.175 223.72 164.815 226.27C164.755 226.67 165.055 227.03 165.455 227.03H174.985C176.005 227.03 176.835 227.86 176.835 228.88V229.89C176.835 233.2 174.155 235.88 170.845 235.88H165.475C165.125 235.88 164.885 236.22 164.985 236.55C165.625 238.72 167.625 240.3 169.995 240.3H186.305C185.565 238 185.155 235.54 185.155 232.99C185.155 219.85 195.805 209.19 208.955 209.19C222.105 209.19 232.755 219.84 232.755 232.99C232.755 235.54 232.345 238 231.605 240.3H340.985C340.245 238 339.835 235.54 339.835 232.99C339.835 219.85 350.485 209.19 363.635 209.19C376.785 209.19 387.435 219.84 387.435 232.99C387.435 235.54 387.025 238 386.285 240.3H395.985C402.905 240.3 408.505 234.69 408.505 227.78V221.78L408.335 218.8L408.315 218.79Z" fill="#F59100" stroke="#FEE198" stroke-width="2" stroke-miterlimit="10"/>
<path d="M176.825 229.9V228.89C176.825 227.87 175.985 227.04 174.955 227.04H165.275C165.275 227.04 165.305 235.61 165.345 235.88H170.755C174.115 235.88 176.835 233.2 176.835 229.89L176.825 229.9Z" fill="#1F2524" stroke="#606D6C" stroke-width="2" stroke-miterlimit="10"/>
<path d="M182.204 214.388C185.219 210.669 186.54 206.743 185.155 205.619C183.769 204.496 180.201 206.601 177.186 210.32C174.17 214.04 172.849 217.966 174.235 219.089C175.621 220.213 179.189 218.108 182.204 214.388Z" fill="#FEEBA2" stroke="#FFC528" stroke-width="2" stroke-miterlimit="10"/>
<path d="M392.285 201.68C395.465 204.68 397.305 209.2 396.375 209.98C395.345 210.85 390.876 207.1 388.946 205.29C386.956 203.41 382.955 199.16 383.765 198.08C384.495 197.11 389.105 198.68 392.285 201.68Z" fill="#F2001B" stroke="#A50042" stroke-width="2" stroke-miterlimit="10"/>
<path d="M315.685 171.21L313.845 171.17C311.725 171.12 309.575 171.1 307.455 171.1C304.285 171.1 301.075 171.16 297.915 171.27H297.705H297.495C285.035 171.27 274.255 173.02 264.535 176.61C255.935 179.79 247.925 184.54 240.035 191.13C239.295 191.75 239.765 192.89 240.765 192.89H315.675V171.22L315.685 171.21Z" fill="#4F5D5B" stroke="#37403F" stroke-width="2" stroke-linejoin="round"/>
<path d="M374.935 192.88C377.585 192.88 378.565 189.98 376.345 188.78C375.385 188.26 374.415 187.77 373.405 187.29C357.675 179.87 349.405 177.14 343.395 175.44C335.295 173.16 327.325 171.85 318.735 171.42V192.87H374.925L374.935 192.88Z" fill="#4F5D5B" stroke="#37403F" stroke-width="2" stroke-linejoin="round"/>
<path d="M208.945 254.24C220.681 254.24 230.195 244.726 230.195 232.99C230.195 221.254 220.681 211.74 208.945 211.74C197.209 211.74 187.695 221.254 187.695 232.99C187.695 244.726 197.209 254.24 208.945 254.24Z" fill="#1F2524" stroke="#37403F" stroke-width="2" stroke-miterlimit="10"/>
<path d="M208.945 245.74C215.987 245.74 221.695 240.032 221.695 232.99C221.695 225.948 215.987 220.24 208.945 220.24C201.904 220.24 196.195 225.948 196.195 232.99C196.195 240.032 201.904 245.74 208.945 245.74Z" fill="#4F5D5B" stroke="#C6C5C5" stroke-width="2" stroke-miterlimit="10"/>
<path d="M208.945 236.9C211.105 236.9 212.855 235.149 212.855 232.99C212.855 230.831 211.105 229.08 208.945 229.08C206.786 229.08 205.035 230.831 205.035 232.99C205.035 235.149 206.786 236.9 208.945 236.9Z" fill="#1F2524" stroke="#37403F" stroke-width="2" stroke-miterlimit="10"/>
<path d="M363.615 254.24C375.351 254.24 384.865 244.726 384.865 232.99C384.865 221.254 375.351 211.74 363.615 211.74C351.879 211.74 342.365 221.254 342.365 232.99C342.365 244.726 351.879 254.24 363.615 254.24Z" fill="#1F2524" stroke="#37403F" stroke-width="2" stroke-miterlimit="10"/>
<path d="M363.615 245.74C370.657 245.74 376.365 240.032 376.365 232.99C376.365 225.948 370.657 220.24 363.615 220.24C356.574 220.24 350.865 225.948 350.865 232.99C350.865 240.032 356.574 245.74 363.615 245.74Z" fill="#4F5D5B" stroke="#C6C5C5" stroke-width="2" stroke-miterlimit="10"/>
<path d="M363.615 236.9C365.775 236.9 367.525 235.149 367.525 232.99C367.525 230.831 365.775 229.08 363.615 229.08C361.456 229.08 359.705 230.831 359.705 232.99C359.705 235.149 361.456 236.9 363.615 236.9Z" fill="#1F2524" stroke="#37403F" stroke-width="2" stroke-miterlimit="10"/>
<path d="M309.905 198.15H296.305C295.648 198.15 295.115 198.683 295.115 199.34C295.115 199.997 295.648 200.53 296.305 200.53H309.905C310.562 200.53 311.095 199.997 311.095 199.34C311.095 198.683 310.562 198.15 309.905 198.15Z" fill="#BDBDBD" stroke="#606D6C" stroke-width="2" stroke-miterlimit="10"/>
<path d="M250.725 183.37V192.88" stroke="#5CAA2E" stroke-width="2" stroke-miterlimit="10"/>
<path d="M240.085 191.12C239.345 191.74 239.815 192.88 240.815 192.88H250.765V183.38C247.155 185.61 243.605 188.18 240.095 191.12H240.085Z" fill="#1F2524" stroke="#37403F" stroke-width="2" stroke-miterlimit="10"/>
<path opacity="0.4" d="M213.195 199.85C215.935 199.99 225.455 200.8 233.585 208.36C243.935 217.99 243.845 230.94 243.795 233H328.775C328.775 213.76 344.375 198.16 363.615 198.16" stroke="#FEE198" stroke-width="2" stroke-miterlimit="10"/>
<path opacity="0.5" d="M265.396 176.41L280.506 192.88H287.886L271.166 174.65C269.196 175.17 267.276 175.75 265.396 176.41Z" fill="#FBFBFB"/>
<path opacity="0.5" d="M295.995 192.88L277.915 173.17C276.865 173.36 275.815 173.56 274.785 173.79L292.295 192.88H295.985H295.995Z" fill="#FBFBFB"/>
<path opacity="0.5" d="M327.155 172.25L346.125 192.88H353.645L336.095 173.79C333.135 173.15 330.165 172.64 327.155 172.25Z" fill="#FBFBFB"/>
<path opacity="0.5" d="M362.595 192.88L348.015 177.02C346.135 176.41 344.475 175.92 342.965 175.49C342.915 175.48 342.865 175.46 342.815 175.45L358.835 192.88H362.595Z" fill="#FBFBFB"/>
<path d="M315.685 171.21L318.745 171.43V192.88H315.685V171.21Z" fill="#1F2524" stroke="#37403F" stroke-width="2" stroke-miterlimit="10"/>
<path opacity="0.4" d="M315.685 192.88L316.015 197C316.475 202.71 316.595 208.44 316.385 214.17L315.685 232.99" stroke="#FEE198" stroke-width="2" stroke-miterlimit="10"/>
<path d="M315.685 171.21L313.845 171.17C311.725 171.12 309.575 171.1 307.455 171.1C304.285 171.1 301.075 171.16 297.915 171.27H297.705H297.495C285.035 171.27 274.255 173.02 264.535 176.61C255.935 179.79 247.925 184.54 240.035 191.13C239.295 191.75 239.765 192.89 240.765 192.89H315.675V171.22L315.685 171.21Z" fill="url(#paint0_linear_360_3458)" stroke="#37403F" stroke-width="2" stroke-linejoin="round"/>
<path d="M374.935 192.88C377.585 192.88 378.565 189.98 376.345 188.78C375.385 188.26 374.415 187.77 373.405 187.29C357.675 179.87 349.405 177.14 343.395 175.44C335.295 173.16 327.325 171.85 318.735 171.42V192.87H374.925L374.935 192.88Z" fill="url(#paint1_linear_360_3458)" stroke="#37403F" stroke-width="2" stroke-linejoin="round"/>
<path d="M252.285 197.3C256.886 197.3 260.615 195.093 260.615 192.37C260.615 189.647 256.886 187.44 252.285 187.44C247.685 187.44 243.955 189.647 243.955 192.37C243.955 195.093 247.685 197.3 252.285 197.3Z" fill="white" stroke="#606D6C" stroke-width="2" stroke-miterlimit="10"/>
<path opacity="0.16" d="M244.325 191.18C244.105 191.61 243.985 192.07 243.985 192.54C243.985 195.16 247.655 197.3 252.155 197.3C255.795 197.3 258.885 195.91 259.935 193.98C259.045 194.51 256.075 196.13 252.115 195.6C247.515 194.98 244.885 191.89 244.315 191.18H244.325Z" fill="#1B1B1A"/>
<path d="M467.466 134.51H420.896V253.49H467.466V134.51Z" fill="#37403F" stroke="#4F5D5B" stroke-width="2" stroke-miterlimit="10"/>
<path d="M467.465 253.48H472.565V134.5H467.465V253.48Z" fill="#37403F" stroke="#4F5D5B" stroke-width="2" stroke-miterlimit="10"/>
<path d="M454.385 170.43H433.985V204.64H454.385V170.43Z" fill="#F9B43E" stroke="#FEE198" stroke-width="2" stroke-linejoin="round"/>
<path d="M433.985 204.64V170.43L439.175 175.17L433.985 204.64Z" fill="#F9B43E" stroke="#FEE198" stroke-width="2" stroke-linejoin="round"/>
<path d="M454.375 175.17H439.175L433.985 170.43H454.375V175.17Z" fill="#F9B43E" stroke="#FEE198" stroke-width="2" stroke-linejoin="round"/>
<path d="M450.166 181.67L450.326 180.68C450.366 180.44 450.196 180.25 449.946 180.25H444.256C444.006 180.24 443.776 180.43 443.736 180.66L443.576 181.65H442.326C441.846 181.65 441.386 182.02 441.316 182.48L438.666 198.65C438.586 199.11 438.916 199.48 439.406 199.49L448.506 199.51C448.986 199.51 449.446 199.14 449.516 198.68L452.166 182.51C452.246 182.05 451.916 181.68 451.426 181.67H450.176H450.166Z" fill="#37403F" stroke="#4F5D5B" stroke-width="2" stroke-miterlimit="10"/>
<path d="M448.016 197.41L440.546 197.39C440.316 197.39 440.156 197.21 440.196 196.99L440.456 195.42C440.496 195.2 440.706 195.03 440.936 195.03L448.406 195.05C448.636 195.05 448.796 195.23 448.756 195.45L448.496 197.02C448.456 197.24 448.246 197.41 448.016 197.41Z" fill="#FEE198"/>
<path d="M448.516 194.37L441.046 194.35C440.816 194.35 440.656 194.17 440.696 193.95L440.956 192.38C440.996 192.16 441.206 191.99 441.436 191.99L448.906 192.01C449.136 192.01 449.296 192.19 449.256 192.41L448.996 193.98C448.956 194.2 448.746 194.37 448.516 194.37Z" fill="#FEE198"/>
<path d="M449.016 191.33L441.546 191.31C441.316 191.31 441.156 191.13 441.196 190.91L441.456 189.34C441.496 189.12 441.706 188.95 441.936 188.95L449.406 188.97C449.636 188.97 449.796 189.15 449.756 189.37L449.496 190.94C449.456 191.16 449.246 191.33 449.016 191.33Z" fill="#FEE198"/>
<path d="M476.306 242.94H417.156V253.48H476.306V242.94Z" fill="#37403F" stroke="#4F5D5B" stroke-width="2" stroke-miterlimit="10"/>
<path d="M448.426 217.79C448.426 215.537 446.599 213.71 444.346 213.71C442.092 213.71 440.266 215.537 440.266 217.79C440.266 220.043 442.092 221.87 444.346 221.87C446.599 221.87 448.426 220.043 448.426 217.79Z" fill="#F9B43E" stroke="#FEE198" stroke-width="2" stroke-linejoin="round"/>
<path d="M429.396 254.24H403.396C388.966 254.24 380.606 249.14 380.606 223.07V205.35C380.606 202.99 379.216 200.99 377.566 200.99C376.936 200.99 376.436 200.48 376.436 199.86C376.436 199.24 376.946 198.73 377.566 198.73C380.486 198.73 382.866 201.7 382.866 205.36V223.08C382.866 249.81 392.156 251.99 403.386 251.99H429.386C434.946 251.99 442.846 244.4 442.846 237.31V222.18C442.846 219.27 444.766 216.91 447.116 216.91H447.566C448.196 216.91 448.696 217.42 448.696 218.04C448.696 218.66 448.186 219.17 447.566 219.17H447.116C446.026 219.17 445.106 220.55 445.106 222.17V237.3C445.106 245.87 436.106 254.25 429.386 254.25L429.396 254.24Z" fill="#FEE198"/>
<path d="M375.775 203.33C373.855 203.33 373.855 196.37 375.775 196.37C377.695 196.37 379.255 197.93 379.255 199.85C379.255 201.77 377.695 203.33 375.775 203.33Z" fill="#F9B43E" stroke="#FEE198" stroke-width="2" stroke-linejoin="round"/>
<path d="M77.6182 247.477H74.4866L66.7988 220.988H69.9305L77.6182 247.477Z" fill="#E2E3E3" stroke="#E2E3E3" stroke-width="2" stroke-miterlimit="10"/>
<path d="M23.6452 205.036C23.2835 205.036 22.933 205.036 22.5825 205.058V208.484C22.933 208.473 23.2948 208.461 23.6452 208.461C36.1265 208.461 46.2902 218.614 46.2902 231.106C46.2902 234.848 45.3744 238.387 43.7578 241.496H47.5451C48.9357 238.308 49.7158 234.792 49.7158 231.106C49.7158 216.737 38.0259 205.047 23.6565 205.047L23.6452 205.036Z" fill="#F9B43E" stroke="#F59100" stroke-width="2" stroke-linejoin="round"/>
<path d="M83.8811 231.095C83.8811 218.614 94.0334 208.45 106.526 208.45C119.019 208.45 129.171 218.602 129.171 231.095C129.171 231.14 129.171 231.185 129.171 231.242H132.585C132.585 231.242 132.585 231.152 132.585 231.095C132.585 216.726 120.895 205.036 106.526 205.036C92.1567 205.036 80.4668 216.726 80.4668 231.095C80.4668 231.14 80.4668 231.185 80.4668 231.242H83.8811C83.8811 231.242 83.8811 231.152 83.8811 231.095Z" fill="#F9B43E" stroke="#F59100" stroke-width="2" stroke-linejoin="round"/>
<path d="M106.526 253.74C94.045 253.74 83.8813 243.588 83.8813 231.095C83.8813 218.602 94.0337 208.45 106.526 208.45C119.019 208.45 129.171 218.602 129.171 231.095C129.171 243.588 119.019 253.74 106.526 253.74ZM106.526 211.876C95.9217 211.876 87.3069 220.502 87.3069 231.095C87.3069 241.688 95.933 250.314 106.526 250.314C117.12 250.314 125.746 241.688 125.746 231.095C125.746 220.502 117.12 211.876 106.526 211.876Z" fill="#EEEEEE" stroke="#BDBDBD" stroke-width="2" stroke-miterlimit="10"/>
<path d="M23.6454 253.74C11.1642 253.74 1.00049 243.588 1.00049 231.095C1.00049 218.602 11.1528 208.45 23.6454 208.45C36.1381 208.45 46.2904 218.602 46.2904 231.095C46.2904 243.588 36.1381 253.74 23.6454 253.74ZM23.6454 211.876C13.0409 211.876 4.42606 220.502 4.42606 231.095C4.42606 241.688 13.0522 250.314 23.6454 250.314C34.2387 250.314 42.8648 241.688 42.8648 231.095C42.8648 220.502 34.2387 211.876 23.6454 211.876Z" fill="#EEEEEE" stroke="#BDBDBD" stroke-width="2" stroke-miterlimit="10"/>
<path d="M107.747 230.519L88.2226 198.094L91.3542 191.006L89.7941 190.316L86.685 197.348H43.871C44.6624 195.426 45.4538 193.527 46.2226 191.695C46.3356 191.435 46.3017 191.13 46.1548 190.893C44.3233 188.1 44.3911 184.652 46.3017 182.877C47.6132 181.656 49.4786 181.633 50.2247 181.679L50.3378 179.972C49.3768 179.904 46.9461 179.938 45.1373 181.622C42.7179 183.872 42.4579 188.032 44.4815 191.435C41.9152 197.552 39.1792 204.301 36.5338 210.824C34.4875 215.878 32.3733 221.09 30.3496 225.974C29.3434 228.416 26.9354 229.987 24.3916 229.874C23.6794 229.84 23.035 229.931 22.4019 230.123L22.9219 231.751C23.3628 231.615 23.8037 231.559 24.3125 231.581C27.5798 231.728 30.6436 229.738 31.9324 226.629C33.9561 221.734 36.0702 216.511 38.1165 211.469C38.7496 209.92 39.3827 208.36 40.0159 206.8L71.6487 234.86C71.807 234.995 72.0105 235.075 72.214 235.075C72.2366 235.075 72.2705 235.075 72.2931 235.075L107.103 231.796C107.397 231.773 107.657 231.593 107.781 231.333C107.917 231.072 107.905 230.756 107.747 230.507V230.519ZM72.4966 233.345L40.6942 205.138C41.5195 203.103 42.3561 201.068 43.1814 199.067H85.9389L71.5696 231.615L73.1297 232.305L87.386 200.005L105.588 230.236L72.4966 233.345Z" fill="#EEEEEE" stroke="#BDBDBD" stroke-width="2" stroke-miterlimit="10"/>
<path d="M89.1157 192.215L79.653 187.806C79.099 187.546 78.7485 186.992 78.7485 186.382V186.099C78.7485 185.229 79.4495 184.528 80.32 184.528H98.2619C99.1324 184.528 99.8333 185.229 99.8333 186.099V187.128C99.8333 187.75 99.4602 188.315 98.8837 188.564L90.4045 192.227C89.9975 192.408 89.5227 192.396 89.127 192.204L89.1157 192.215Z" fill="#37403F" stroke="#4F5D5B" stroke-width="2" stroke-miterlimit="10"/>
<path d="M71.4907 218.704H66.3693C65.5014 218.704 64.7979 219.405 64.7979 220.27C64.7979 221.135 65.5014 221.836 66.3693 221.836H71.4907C72.3586 221.836 73.0622 221.135 73.0622 220.27C73.0622 219.405 72.3586 218.704 71.4907 218.704Z" fill="#E2E3E3" stroke="#E2E3E3" stroke-width="2" stroke-miterlimit="10"/>
<path d="M59.2512 178.98H49.7498C48.7837 178.98 48.0005 179.652 48.0005 180.48C48.0005 181.308 48.7837 181.98 49.7498 181.98H59.2512C60.2173 181.98 61.0005 181.308 61.0005 180.48C61.0005 179.652 60.2173 178.98 59.2512 178.98Z" fill="#F9B43E" stroke="#F59100" stroke-width="2" stroke-linejoin="round"/>
<path d="M71.9203 240.637C75.854 240.637 79.0428 237.448 79.0428 233.514C79.0428 229.581 75.854 226.392 71.9203 226.392C67.9867 226.392 64.7979 229.581 64.7979 233.514C64.7979 237.448 67.9867 240.637 71.9203 240.637Z" fill="#EEEEEE" stroke="#BDBDBD" stroke-width="2" stroke-miterlimit="10"/>
<path d="M77.6183 247.477H74.4867L70.9594 235.335C70.6881 234.408 71.3551 233.469 72.316 233.413C73.017 233.379 73.6501 233.82 73.8423 234.498L77.607 247.477H77.6183Z" fill="#EEEEEE" stroke="#BDBDBD" stroke-width="2" stroke-miterlimit="10"/>
<path d="M78.6128 245.193H73.4914C72.6235 245.193 71.9199 245.894 71.9199 246.759C71.9199 247.624 72.6235 248.325 73.4914 248.325H78.6128C79.4807 248.325 80.1843 247.624 80.1843 246.759C80.1843 245.894 79.4807 245.193 78.6128 245.193Z" fill="#EEEEEE" stroke="#BDBDBD" stroke-width="2" stroke-miterlimit="10"/>
</g>
<defs>
<linearGradient id="paint0_linear_360_3458" x1="277.325" y1="212.97" x2="278.405" y2="150.46" gradientUnits="userSpaceOnUse">
<stop stop-color="#BDBDBD"/>
<stop offset="1" stop-color="#BDBDBD" stop-opacity="0"/>
</linearGradient>
<linearGradient id="paint1_linear_360_3458" x1="347.585" y1="214.19" x2="348.665" y2="151.67" gradientUnits="userSpaceOnUse">
<stop stop-color="#BDBDBD"/>
<stop offset="1" stop-color="#BDBDBD" stop-opacity="0"/>
</linearGradient>
<clipPath id="clip0_360_3458">
<rect width="514" height="255" fill="white" transform="translate(0 0.5)"/>
</clipPath>
</defs>
</svg>
