<svg width="16" height="12" viewBox="0 0 16 12" fill="none" xmlns="http://www.w3.org/2000/svg">
<path d="M5.45367 8.92676C6.73433 7.84449 8.61051 7.84449 9.89117 8.92676C9.95556 8.98497 9.99292 9.06755 9.99469 9.1543C9.99635 9.24074 9.96258 9.3241 9.90094 9.38477L7.89508 11.4072C7.83631 11.4666 7.756 11.5 7.67242 11.5C7.58887 11.4999 7.50851 11.4666 7.44977 11.4072L5.44489 9.38477C5.38304 9.32404 5.34846 9.2409 5.35016 9.1543C5.35199 9.06765 5.38937 8.98491 5.45367 8.92676ZM2.77789 6.22949C5.53703 3.66511 9.80974 3.66517 12.5689 6.22949C12.6312 6.28963 12.6667 6.37245 12.6675 6.45898C12.6683 6.54533 12.6347 6.62818 12.5738 6.68945L11.4146 7.86035C11.2951 7.97965 11.1025 7.98151 10.98 7.86523C10.074 7.04547 8.89476 6.59172 7.67242 6.5918C6.45103 6.59232 5.27315 7.04617 4.36774 7.86523C4.24519 7.98158 4.05165 7.97986 3.93219 7.86035L2.77399 6.68945C2.71291 6.62825 2.67855 6.5454 2.67926 6.45898C2.68008 6.37251 2.71569 6.28961 2.77789 6.22949ZM0.102112 3.53906C4.33393 -0.513005 11.0099 -0.512852 15.2418 3.53906C15.303 3.59926 15.3379 3.68173 15.3384 3.76758C15.3389 3.85334 15.3052 3.93622 15.2447 3.99707L14.0845 5.16699C13.965 5.28709 13.7704 5.28817 13.649 5.16992C12.0367 3.63852 9.89701 2.78428 7.67242 2.78418C5.44754 2.78419 3.30742 3.63829 1.69489 5.16992C1.5736 5.28829 1.37983 5.2871 1.26031 5.16699L0.0991821 3.99707C0.0387514 3.93619 0.00495124 3.85331 0.00543213 3.76758C0.0059974 3.68173 0.0408096 3.59922 0.102112 3.53906Z" fill="#37403F"/>
</svg>
