<svg width="304" height="304" viewBox="0 0 304 304" fill="none" xmlns="http://www.w3.org/2000/svg">
<path d="M196 134C196 125.716 202.716 119 211 119C219.284 119 226 125.716 226 134V276H196V134Z" fill="#EEEEEE"/>
<path d="M217 165H264V167C264 175.837 256.837 183 248 183H217V165Z" fill="#EEEEEE"/>
<path d="M203 200H167C167 207.732 173.268 214 181 214H203V200Z" fill="#EEEEEE"/>
<path d="M242 127C242 120.925 246.925 116 253 116C259.075 116 264 120.925 264 127V167C264 175.837 256.837 183 248 183H242V127Z" fill="#EEEEEE"/>
<path d="M184 176.5C184 171.806 180.194 168 175.5 168C170.806 168 167 171.806 167 176.5V198C167 206.837 174.163 214 183 214H184V176.5Z" fill="#EEEEEE"/>
<path d="M77.7559 179.219C77.7559 173.575 82.3309 169 87.9746 169C93.6183 169 98.1934 173.575 98.1934 179.219V275.956H77.7559V179.219Z" fill="#EEEEEE"/>
<path d="M92.0625 221.337H124.081V222.7C124.081 228.72 119.201 233.6 113.181 233.6H92.0625V221.337Z" fill="#EEEEEE"/>
<path d="M83 200.956H49C49 205.927 53.0294 209.956 58 209.956H83V200.956Z" fill="#EEEEEE"/>
<path d="M109 205.456C109 201.314 112.358 197.956 116.5 197.956C120.642 197.956 124 201.314 124 205.456V222.056C124 228.076 119.12 232.956 113.1 232.956H109V205.456Z" fill="#EEEEEE"/>
<path d="M61 186.456C61 182.866 58.0899 179.956 54.5 179.956C50.9101 179.956 48 182.866 48 186.456V199.056C48 205.076 52.8801 209.956 58.9 209.956H61V186.456Z" fill="#EEEEEE"/>
<path d="M30.7998 276.968L272 276.968" stroke="#E2E4E4" stroke-width="2" stroke-linecap="round"/>
<path d="M253.531 276.968H281.923" stroke="#E2E4E4" stroke-width="2" stroke-linecap="round" stroke-dasharray="4 4"/>
<path d="M16.8691 276.968L42.4261 276.968" stroke="#E2E4E4" stroke-width="2" stroke-linecap="round" stroke-dasharray="4 4"/>
<path d="M267 276C267 272.686 263.866 270 260 270C256.134 270 253 272.686 253 276H267Z" fill="#EEEEEE"/>
<path d="M96.1801 276.104C96.1801 266.105 86.5139 258 74.5899 258C62.6662 258 53 266.105 53 276.104H96.1801Z" fill="#F4F4F4"/>
<path d="M68 276C68 269.925 61.5081 265 53.4999 265C45.4919 265 39 269.925 39 276H68Z" fill="#EEEEEE"/>
<path d="M146 276C146 274.343 143.761 273 141 273C138.239 273 136 274.343 136 276H146Z" fill="#EEEEEE"/>
<path d="M209 276C209 269.925 202.956 265 195.5 265C188.044 265 182 269.925 182 276H209Z" fill="#F4F4F4"/>
<path d="M194 276C194 271.582 189.523 268 184 268C178.477 268 174 271.582 174 276H194Z" fill="#EEEEEE"/>
</svg>
