<svg width="81" height="18" viewBox="0 0 81 18" fill="none" xmlns="http://www.w3.org/2000/svg">
<path d="M0.513672 17.1303L3.43588 1.08035H3.48015L8.57187 11.5959L13.6636 1.08035H13.7079L16.7076 17.1303L13.7411 17.4956L12.4792 9.5149H12.4349L8.59401 17.4956H8.5608L4.65346 9.5149H4.60918L3.42481 17.4956L0.513672 17.1303Z" fill="#475957"/>
<path d="M23.7363 5.15372C27.1677 5.15372 30.1785 7.83241 30.1785 11.3302C30.1785 14.828 27.1566 17.5067 23.7363 17.5067C20.316 17.5067 17.2942 14.828 17.2942 11.3302C17.2942 7.83241 20.316 5.15372 23.7363 5.15372ZM23.7363 14.8501C25.7066 14.8501 27.4444 13.3226 27.4444 11.3302C27.4444 9.33779 25.7066 7.81027 23.7363 7.81027C21.7661 7.81027 20.0282 9.33779 20.0282 11.3302C20.0393 13.3115 21.7771 14.8501 23.7363 14.8501Z" fill="#475957"/>
<path d="M31.7614 5.519L34.5065 5.24227V6.84727H34.5507C35.5359 5.519 36.4989 5.15372 38.1149 5.15372C40.5169 5.15372 42.1108 6.68124 42.1108 9.14962V17.1303L39.2108 17.3185V9.93551C39.2108 8.69579 38.6352 7.67744 37.3401 7.67744C35.5137 7.67744 34.6614 9.07213 34.6614 10.5332V17.1414L31.7614 17.3296V5.519V5.519Z" fill="#475957"/>
<path d="M47.7228 2.40861L45.7525 4.35674L43.7822 2.40861L45.7525 0.471539L47.7228 2.40861ZM44.2471 5.51898L47.1472 5.24226V17.1303L44.2471 17.3185V5.51898Z" fill="#475957"/>
<path d="M49.5713 5.51901H57.9837L52.6595 14.6177H57.9837L57.4856 17.1303H48.2983L53.6225 8.03166H48.9846L49.5713 5.51901Z" fill="#475957"/>
<path d="M59.5776 5.51901H67.99L62.6659 14.6177H67.99L67.4919 17.1303H58.3047L63.6289 8.03166H58.991L59.5776 5.51901Z" fill="#475957"/>
<path d="M79.9002 15.9681C78.4834 16.9532 76.7456 17.4956 75.0299 17.4956C71.5985 17.4956 68.5878 14.8169 68.5878 11.3191C68.5878 7.82133 71.6096 5.14264 75.0299 5.14264C77.4319 5.14264 79.535 6.5816 80.5644 8.72898L72.6058 13.6657C72.8382 14.1417 73.4692 14.828 74.8639 14.828C76.3471 14.828 77.4429 14.2524 78.6605 13.4554L79.9002 15.9681ZM76.9006 8.3305C76.3471 7.77705 75.6387 7.57781 74.8639 7.57781C73.0375 7.57781 71.5764 9.06105 71.4104 10.8432C71.4104 11.0977 71.4104 11.3413 71.4546 11.618L76.9006 8.3305Z" fill="#475957"/>
</svg>
