<svg width="81" height="18" viewBox="0 0 81 18" fill="none" xmlns="http://www.w3.org/2000/svg">
<path d="M0.513653 17.1303L3.43586 1.08032H3.48013L8.57185 11.5958L13.6636 1.08032H13.7079L16.7075 17.1303L13.7411 17.4956L12.4792 9.51487H12.4349L8.59399 17.4956H8.56078L4.65344 9.51487H4.60917L3.42479 17.4956L0.513653 17.1303Z" fill="#475957"/>
<path d="M23.7363 5.15369C27.1677 5.15369 30.1785 7.83237 30.1785 11.3302C30.1785 14.828 27.1566 17.5066 23.7363 17.5066C20.316 17.5066 17.2942 14.828 17.2942 11.3302C17.2942 7.83237 20.316 5.15369 23.7363 5.15369ZM23.7363 14.8501C25.7066 14.8501 27.4444 13.3226 27.4444 11.3302C27.4444 9.33775 25.7066 7.81024 23.7363 7.81024C21.766 7.81024 20.0282 9.33775 20.0282 11.3302C20.0393 13.3115 21.7771 14.8501 23.7363 14.8501Z" fill="#475957"/>
<path d="M31.7614 5.51896L34.5065 5.24224V6.84724H34.5507C35.5359 5.51896 36.4989 5.15369 38.1149 5.15369C40.5169 5.15369 42.1108 6.6812 42.1108 9.14958V17.1303L39.2108 17.3185V9.93548C39.2108 8.69575 38.6352 7.67741 37.3401 7.67741C35.5137 7.67741 34.6614 9.0721 34.6614 10.5332V17.1414L31.7614 17.3295V5.51896V5.51896Z" fill="#475957"/>
<path d="M47.7228 2.40863L45.7525 4.35676L43.7822 2.40863L45.7525 0.471558L47.7228 2.40863ZM44.2471 5.519L47.1472 5.24228V17.1303L44.2471 17.3185V5.519Z" fill="#475957"/>
<path d="M49.5712 5.51904H57.9836L52.6595 14.6177H57.9836L57.4855 17.1304H48.2983L53.6225 8.0317H48.9846L49.5712 5.51904Z" fill="#475957"/>
<path d="M59.5776 5.51904H67.99L62.6659 14.6177H67.99L67.4919 17.1304H58.3047L63.6289 8.0317H58.991L59.5776 5.51904Z" fill="#475957"/>
<path d="M79.9002 15.9681C78.4834 16.9533 76.7456 17.4957 75.0299 17.4957C71.5985 17.4957 68.5878 14.817 68.5878 11.3192C68.5878 7.82139 71.6096 5.1427 75.0299 5.1427C77.4319 5.1427 79.535 6.58167 80.5644 8.72904L72.6058 13.6658C72.8382 14.1418 73.4692 14.828 74.8639 14.828C76.3471 14.828 77.4429 14.2525 78.6605 13.4555L79.9002 15.9681ZM76.9005 8.33056C76.3471 7.77711 75.6387 7.57787 74.8639 7.57787C73.0375 7.57787 71.5764 9.06111 71.4103 10.8432C71.4103 11.0978 71.4103 11.3413 71.4546 11.618L76.9005 8.33056Z" fill="#475957"/>
</svg>
