<svg width="996" height="237" viewBox="0 0 996 237" fill="none" xmlns="http://www.w3.org/2000/svg">
<path d="M188.9 47.2002H47.2V188.9H188.9V47.2002Z" fill="#F59100"/>
<path d="M103.4 117.8C103.4 125.1 101.8 130.7 93.6001 130.7C84.4001 130.7 83.4001 124.1 83.4001 118.8V76.9004L71.6001 79.5004V120.5C71.6001 136.1 82.5001 142.1 93.0001 142.1C106.7 142.1 115.1 133.3 115.1 122.2V76.9004L103.3 79.5004V117.8H103.4Z" fill="white"/>
<path d="M144.9 94.0008C140.2 94.0008 135.8 95.4008 132.2 98.0008V91.3008L120.9 94.0008V156.601L132.2 154.001V138.001C135.9 140.501 140.2 142.001 145 142.001C157.8 142.001 168.1 131.201 168.1 118.001C167.9 104.801 157.6 94.0008 144.9 94.0008ZM144.1 131.701C136.5 131.701 131 125.401 131 118.001C131 110.601 136.5 104.301 144.1 104.301C151.7 104.301 157.2 110.601 157.2 118.001C157.2 125.401 151.7 131.701 144.1 131.701Z" fill="white"/>
<path d="M224.3 188.9L250.7 43.9004H251.1L297.1 138.9L343.1 43.9004H343.5L370.6 188.9L343.8 192.2L332.4 120.1H332L297.3 192.2H297L261.7 120.1H261.3L250.6 192.2L224.3 188.9Z" fill="#4F5D5B"/>
<path d="M434.1 80.7002C465.1 80.7002 492.3 104.9 492.3 136.5C492.3 168.1 465 192.3 434.1 192.3C403.2 192.3 375.9 168.1 375.9 136.5C375.9 104.9 403.2 80.7002 434.1 80.7002ZM434.1 168.3C451.9 168.3 467.6 154.5 467.6 136.5C467.6 118.5 451.9 104.7 434.1 104.7C416.3 104.7 400.6 118.5 400.6 136.5C400.7 154.4 416.4 168.3 434.1 168.3Z" fill="#4F5D5B"/>
<path d="M506.6 84.0002L531.4 81.5002V96.0002H531.8C540.7 84.0002 549.4 80.7002 564 80.7002C585.7 80.7002 600.1 94.5002 600.1 116.8V188.9L573.9 190.6V123.9C573.9 112.7 568.7 103.5 557 103.5C540.5 103.5 532.8 116.1 532.8 129.3V189L506.6 190.7V84.0002V84.0002Z" fill="#4F5D5B"/>
<path d="M650.8 55.9004L633 73.5004L615.2 55.9004L633 38.4004L650.8 55.9004ZM619.4 84.0004L645.6 81.5004V188.9L619.4 190.6V84.0004Z" fill="#4F5D5B"/>
<path d="M667.5 84H743.5L695.4 166.2H743.5L739 188.9H656L704.1 106.7H662.2L667.5 84Z" fill="#4F5D5B"/>
<path d="M757.9 84H833.9L785.8 166.2H833.9L829.4 188.9H746.4L794.5 106.7H752.6L757.9 84Z" fill="#4F5D5B"/>
<path d="M941.5 178.401C928.7 187.301 913 192.201 897.5 192.201C866.5 192.201 839.3 168.001 839.3 136.401C839.3 104.801 866.6 80.6006 897.5 80.6006C919.2 80.6006 938.2 93.6006 947.5 113.001L875.6 157.601C877.7 161.901 883.4 168.101 896 168.101C909.4 168.101 919.3 162.901 930.3 155.701L941.5 178.401ZM914.4 109.401C909.4 104.401 903 102.601 896 102.601C879.5 102.601 866.3 116.001 864.8 132.101C864.8 134.401 864.8 136.601 865.2 139.101L914.4 109.401Z" fill="#4F5D5B"/>
</svg>
