<svg width="996" height="237" viewBox="0 0 996 237" fill="none" xmlns="http://www.w3.org/2000/svg">
<g clip-path="url(#clip0_2_160)">
<path d="M144.1 104.3C136.5 104.3 131 110.6 131 118C131 125.4 136.5 131.7 144.1 131.7C151.7 131.7 157.2 125.4 157.2 118C157.2 110.6 151.7 104.3 144.1 104.3Z" fill="white"/>
<path d="M47.2 47.2002V188.9H188.9V47.2002H47.2ZM115.2 122.2C115.2 133.2 106.8 142.1 93.0999 142.1C82.5999 142.1 71.6999 136.1 71.6999 120.5V79.5002L83.5 76.9002V118.8C83.5 124.1 84.4999 130.7 93.6999 130.7C101.9 130.7 103.5 125.1 103.5 117.8V79.5002L115.3 76.9002V122.2H115.2ZM144.9 142.1C140.2 142.1 135.8 140.6 132.1 138.1V154.1L120.8 156.7V94.1002L132.1 91.4002V98.0002C135.8 95.5002 140.1 94.0002 144.8 94.0002C157.6 94.0002 167.9 104.8 167.9 118C167.9 131.3 157.6 142.1 144.9 142.1Z" fill="white"/>
<path d="M224.3 188.9L250.7 43.9004H251.1L297.1 138.9L343.1 43.9004H343.5L370.6 188.9L343.8 192.2L332.4 120.1H332L297.3 192.2H297L261.7 120.1H261.3L250.6 192.2L224.3 188.9Z" fill="white"/>
<path d="M434.1 80.7002C465.1 80.7002 492.3 104.9 492.3 136.5C492.3 168.1 465 192.3 434.1 192.3C403.2 192.3 375.9 168.1 375.9 136.5C375.9 104.9 403.2 80.7002 434.1 80.7002ZM434.1 168.3C451.9 168.3 467.6 154.5 467.6 136.5C467.6 118.5 451.9 104.7 434.1 104.7C416.3 104.7 400.6 118.5 400.6 136.5C400.7 154.4 416.4 168.3 434.1 168.3Z" fill="white"/>
<path d="M506.6 84.0002L531.4 81.5002V96.0002H531.8C540.7 84.0002 549.4 80.7002 564 80.7002C585.7 80.7002 600.1 94.5002 600.1 116.8V188.9L573.9 190.6V123.9C573.9 112.7 568.7 103.5 557 103.5C540.5 103.5 532.8 116.1 532.8 129.3V189L506.6 190.7V84.0002V84.0002Z" fill="white"/>
<path d="M650.8 55.9004L633 73.5004L615.2 55.9004L633 38.4004L650.8 55.9004ZM619.4 84.0004L645.6 81.5004V188.9L619.4 190.6V84.0004Z" fill="white"/>
<path d="M667.5 84H743.5L695.4 166.2H743.5L739 188.9H656L704.1 106.7H662.2L667.5 84Z" fill="white"/>
<path d="M757.9 84H833.9L785.8 166.2H833.9L829.4 188.9H746.4L794.5 106.7H752.6L757.9 84Z" fill="white"/>
<path d="M941.5 178.401C928.7 187.301 913 192.201 897.5 192.201C866.5 192.201 839.3 168.001 839.3 136.401C839.3 104.801 866.6 80.6006 897.5 80.6006C919.2 80.6006 938.2 93.6006 947.5 113.001L875.6 157.601C877.7 161.901 883.4 168.101 896 168.101C909.4 168.101 919.3 162.901 930.3 155.701L941.5 178.401ZM914.4 109.401C909.4 104.401 903 102.601 896 102.601C879.5 102.601 866.3 116.001 864.8 132.101C864.8 134.401 864.8 136.601 865.2 139.101L914.4 109.401Z" fill="white"/>
</g>
<defs>
<clipPath id="clip0_2_160">
<rect width="995.1" height="236.1" fill="white"/>
</clipPath>
</defs>
</svg>
