<svg width="98" height="120" viewBox="0 0 98 120" fill="none" xmlns="http://www.w3.org/2000/svg">
<path d="M27.9219 77.8751C29.1524 75.9416 31.7891 75.4142 33.7227 76.8204L44.6211 84.0274C46.3789 85.2579 48.4883 85.7852 50.7734 85.7852H55.4355C54.5639 88.5887 54.2795 91.518 54.584 94.3985H50.7734C46.9062 94.3985 43.0391 93.168 39.875 91.0586L28.9766 83.8516C27.043 82.4454 26.5156 79.8086 27.9219 77.8751ZM75.9941 73.6358C78.6078 73.6358 81.141 74.1967 83.4541 75.2295C83.2914 78.5368 81.5893 81.4949 79.25 83.5001C78.996 87.8182 76.3549 91.5834 72.6553 93.3419L70.2871 90.9737C69.6098 90.2964 68.6145 90.254 67.957 90.8467L67.7031 91.1006C67.1109 91.7577 67.1533 92.748 67.8301 93.3575L68.835 94.3624C68.5591 94.3837 68.2809 94.3985 68 94.3985H57.6035C57.2481 91.5167 57.5804 88.5667 58.6016 85.7852H68C69.4062 85.7852 70.8125 84.5547 70.8125 82.9727C70.8124 82.7969 70.6367 82.4453 70.6367 82.2696C70.1095 80.1603 71.1641 78.0508 73.0977 77.1719C74.1523 76.8203 75.0312 75.7657 75.0312 74.5352C75.0312 74.2701 74.9417 73.9608 74.8086 73.6739C75.2013 73.6489 75.5968 73.6358 75.9941 73.6358ZM17.375 43.5977C20.3632 43.5977 22.9999 46.2345 23 49.2227V88.5977C23 91.7618 20.3633 94.2227 17.375 94.2227H6.125C2.96094 94.2227 0.5 91.7618 0.5 88.5977V49.2227C0.500113 46.2345 2.96101 43.5977 6.125 43.5977H17.375ZM41.6328 24.7891C43.5665 17.9338 50.5977 14.0665 57.2773 16.0001C64.1327 17.9336 67.9999 24.965 66.0664 31.6446L65.0117 35.1602C64.4844 37.0937 63.7812 39.0274 62.9023 40.7852H79.25C85.4023 40.7852 90.4999 45.883 90.5 52.0352C90.5 55.1992 89.0937 58.0118 87.1602 60.1212C87.5117 61.1758 87.6875 62.2306 87.6875 63.461C87.6875 66.7707 86.1288 69.9239 83.5996 72.042C81.2083 71.1269 78.6378 70.6358 75.9941 70.6358C75.1623 70.6358 74.3384 70.6859 73.5254 70.7794C73.4625 70.0954 73.5529 69.3955 73.8008 68.7344C74.1524 67.3283 75.3829 66.4493 76.9648 66.0977C78.1953 65.9219 79.25 64.6915 79.25 63.2852C79.2499 62.5822 78.8984 62.0547 78.5469 61.5274C77.4923 60.4727 77.1406 59.0664 77.4922 57.6602C77.8438 56.2541 78.8985 55.1993 80.1289 54.6719C81.1836 54.3203 82.0625 53.2657 82.0625 52.0352C82.0624 50.629 80.6562 49.2227 79.25 49.2227H55.6953C54.1133 49.2227 52.707 48.3438 52.0039 46.9376C51.3009 45.5313 51.3008 43.9492 52.1797 42.7188C54.289 39.7306 55.8711 36.3906 56.9258 32.8751L57.9805 29.3594C58.5077 27.0743 57.2773 24.7891 54.9922 24.086C52.7071 23.5587 50.4219 24.7893 49.7188 27.0743L48.8398 30.5899C47.7852 34.1055 46.0273 37.2696 43.5664 40.0821L34.4258 49.9258C32.8438 51.6837 30.207 51.8594 28.4492 50.2774C26.8673 48.6954 26.6914 46.0586 28.2734 44.3008L37.2383 34.4571C38.8203 32.6993 40.0508 30.5899 40.7539 28.3047L41.6328 24.7891Z" fill="#FF8500"/>
<path d="M75.9949 110.623C69.3486 110.623 63.2803 107.156 59.9572 101.376C56.6341 95.6694 56.6341 88.6619 59.9572 82.8826C63.2803 77.1755 69.3486 73.6356 75.9949 73.6356C82.5689 73.6356 88.6372 77.1755 91.9603 82.8826C95.2834 88.6619 95.2834 95.6694 91.9603 101.376C88.6372 107.156 82.5689 110.623 75.9949 110.623ZM84.1582 88.7342H84.0859C84.8084 88.084 84.8084 87.0004 84.0859 86.2779C83.4358 85.6278 82.3521 85.6278 81.702 86.2779L73.6831 94.369L70.2878 90.9737C69.5653 90.2512 68.4817 90.2512 67.8315 90.9737C67.1091 91.6238 67.1091 92.7075 67.8315 93.3576L72.455 97.9811C73.1052 98.7035 74.1888 98.7035 74.9112 97.9811L84.1582 88.7342Z" fill="#37403F"/>
</svg>
