<svg width="16" height="12" viewBox="0 0 16 12" fill="none" xmlns="http://www.w3.org/2000/svg">
<path d="M5.45361 8.92676C6.73427 7.84449 8.61045 7.84449 9.89111 8.92676C9.9555 8.98497 9.99286 9.06755 9.99463 9.1543C9.99628 9.24074 9.96252 9.3241 9.90088 9.38477L7.89502 11.4072C7.83624 11.4666 7.75594 11.5 7.67236 11.5C7.58881 11.4999 7.50844 11.4666 7.44971 11.4072L5.44482 9.38477C5.38298 9.32404 5.3484 9.2409 5.3501 9.1543C5.35193 9.06765 5.38931 8.98491 5.45361 8.92676ZM2.77783 6.22949C5.53696 3.66511 9.80968 3.66517 12.5688 6.22949C12.6311 6.28963 12.6666 6.37245 12.6675 6.45898C12.6682 6.54533 12.6346 6.62818 12.5737 6.68945L11.4146 7.86035C11.2951 7.97965 11.1025 7.98151 10.98 7.86523C10.0739 7.04547 8.8947 6.59172 7.67236 6.5918C6.45097 6.59232 5.27309 7.04617 4.36768 7.86523C4.24513 7.98158 4.05159 7.97986 3.93213 7.86035L2.77393 6.68945C2.71285 6.62825 2.67849 6.5454 2.6792 6.45898C2.68002 6.37251 2.71563 6.28961 2.77783 6.22949ZM0.102051 3.53906C4.33386 -0.513005 11.0098 -0.512852 15.2417 3.53906C15.303 3.59926 15.3379 3.68173 15.3384 3.76758C15.3388 3.85334 15.3051 3.93622 15.2446 3.99707L14.0845 5.16699C13.9649 5.28709 13.7703 5.28817 13.6489 5.16992C12.0366 3.63852 9.89695 2.78428 7.67236 2.78418C5.44747 2.78419 3.30736 3.63829 1.69482 5.16992C1.57354 5.28829 1.37977 5.2871 1.26025 5.16699L0.0991211 3.99707C0.0386904 3.93619 0.00489021 3.85331 0.00537109 3.76758C0.00593637 3.68173 0.0407486 3.59922 0.102051 3.53906Z" fill="#37403F"/>
</svg>
